<?xml version="1.0" standalone="no"?>
<!DOCTYPE svg PUBLIC "-//W3C//DTD SVG 20010904//EN"
 "http://www.w3.org/TR/2001/REC-SVG-20010904/DTD/svg10.dtd">
<svg version="1.0" xmlns="http://www.w3.org/2000/svg"
 width="512.000000pt" height="512.000000pt" viewBox="0 0 512.000000 512.000000"
 preserveAspectRatio="xMidYMid meet">
<metadata>
Created by potrace 1.11, written by Peter Selinger 2001-2013
</metadata>
<g transform="translate(0.000000,512.000000) scale(0.100000,-0.100000)"
fill="#000000" stroke="none">
<path d="M2378 4715 c-2 -1 -32 -6 -68 -9 -190 -20 -486 -104 -643 -183 -26
-13 -53 -21 -59 -17 -6 4 -8 3 -5 -2 3 -6 -9 -16 -26 -24 -43 -18 -199 -114
-267 -164 -142 -103 -285 -233 -380 -345 -25 -30 -49 -59 -55 -65 -23 -26 -74
-97 -133 -186 -136 -205 -256 -500 -296 -725 -3 -16 -8 -41 -11 -55 -24 -119
-30 -205 -30 -395 1 -244 29 -423 101 -648 260 -805 947 -1370 1804 -1484 75
-10 388 -10 480 0 361 40 735 186 1040 408 41 30 82 61 90 69 9 8 41 37 73 64
225 192 436 485 560 776 56 131 126 380 141 502 3 24 10 75 15 113 9 70 7 447
-3 475 -2 8 -7 34 -10 57 -16 130 -75 342 -141 508 -53 133 -193 378 -268 471
-135 167 -236 271 -358 371 -150 122 -326 229 -504 307 -60 26 -119 52 -130
56 -48 22 -242 74 -350 95 -99 19 -261 32 -402 33 -89 0 -163 -1 -165 -3z
m627 -1691 c44 -75 89 -151 100 -169 11 -19 55 -93 98 -165 l78 -130 -79 -133
c-44 -72 -88 -146 -98 -164 -11 -17 -55 -92 -99 -167 l-80 -136 -362 0 -363 0
-25 40 c-14 22 -25 43 -25 46 0 4 -11 22 -25 40 -14 18 -25 35 -25 37 0 3 -50
88 -111 189 -61 100 -120 198 -130 215 -18 31 -17 63 2 63 5 0 9 4 9 10 0 10
113 203 257 438 l75 122 361 0 362 -1 80 -135z"/>
</g>
</svg>
